<?xml version="1.0" encoding="UTF-8"?>
<svg version="1.1" xmlns="http://www.w3.org/2000/svg" width="1000" height="800">
<path d="M0 0 C330 0 660 0 1000 0 C1000 264 1000 528 1000 800 C670 800 340 800 0 800 C0 536 0 272 0 0 Z " fill="#F8AE09" transform="translate(0,0)"/>
<path d="M0 0 C11.51821869 -0.52149415 25.1565572 1.88995266 34.40625 9.3203125 C35.55078125 12.3515625 35.55078125 12.3515625 36.21875 15.8203125 C36.56873047 17.53734375 36.56873047 17.53734375 36.92578125 19.2890625 C37.40625 22.3203125 37.40625 22.3203125 37.40625 25.3203125 C46.64625 25.3203125 55.88625 25.3203125 65.40625 25.3203125 C65.40625 35.5503125 65.40625 45.7803125 65.40625 56.3203125 C77.28625 56.3203125 89.16625 56.3203125 101.40625 56.3203125 C101.40625 63.2503125 101.40625 70.1803125 101.40625 77.3203125 C89.52625 77.3203125 77.64625 77.3203125 65.40625 77.3203125 C65.40625 94.1503125 65.40625 110.9803125 65.40625 128.3203125 C66.06625 128.3203125 66.72625 128.3203125 67.40625 128.3203125 C68.42491229 129.97563873 69.42435813 131.64291388 70.40625 133.3203125 C73.47819908 134.85628704 76.00869293 134.5468163 79.40625 134.3203125 C83.5093261 132.74220631 86.32676317 131.26039281 88.40625 127.3203125 C89.13106084 123.66756781 89.13106084 123.66756781 89.40625 120.3203125 C90.96875 119.6328125 90.96875 119.6328125 93.40625 119.3203125 C95.03747749 119.98611964 96.66561051 120.66358484 98.2578125 121.41796875 C102.48149222 123.19191423 106.97503252 124.19047224 111.40625 125.3203125 C110.98535004 130.92492781 110.49011889 136.04117797 108.40625 141.3203125 C107.74625 141.3203125 107.08625 141.3203125 106.40625 141.3203125 C106.15617188 142.0628125 105.90609375 142.8053125 105.6484375 143.5703125 C102.34229099 150.88958024 94.4034012 155.70988885 87.1171875 158.47265625 C76.99011414 160.78589301 63.8775314 161.38280827 54.41015625 156.58984375 C46.25958895 151.42622899 39.58960748 145.79907846 36.40625 136.3203125 C35.86967345 131.67844913 35.93981892 127.08149827 36.015625 122.4140625 C36.02309908 121.08029026 36.02878649 119.74650694 36.03277588 118.41271973 C36.04794091 114.92725516 36.08714081 111.44247305 36.1315918 107.95727539 C36.17274406 104.39088163 36.19082914 100.824376 36.2109375 97.2578125 C36.25364655 90.27833974 36.32391922 83.29942929 36.40625 76.3203125 C31.78625 76.3203125 27.16625 76.3203125 22.40625 76.3203125 C22.40625 69.7203125 22.40625 63.1203125 22.40625 56.3203125 C27.02625 56.3203125 31.64625 56.3203125 36.40625 56.3203125 C36.40625 50.3803125 36.40625 44.4403125 36.40625 38.3203125 C26.50625 38.8153125 26.50625 38.8153125 16.40625 39.3203125 C14.09375 31.8828125 14.09375 31.8828125 13.38549805 29.53735352 C12.81485038 27.76709958 12.11242655 26.04099621 11.40625 24.3203125 C7.08005356 22.87824702 2.92746914 22.77183674 -1.59375 23.3203125 C-4.69174981 25.51158066 -5.39727112 26.73087586 -6.59375 30.3203125 C-6.74361411 32.3109569 -6.84203038 34.30566641 -6.91015625 36.30078125 C-6.97299805 38.04584961 -6.97299805 38.04584961 -7.03710938 39.82617188 C-7.07642578 41.04111328 -7.11574219 42.25605469 -7.15625 43.5078125 C-7.22102539 45.34762695 -7.22102539 45.34762695 -7.28710938 47.22460938 C-7.39328014 50.25637442 -7.49402764 53.2883285 -7.59375 56.3203125 C0.65625 56.3203125 8.90625 56.3203125 17.40625 56.3203125 C17.40625 62.9203125 17.40625 69.5203125 17.40625 76.3203125 C9.15625 76.3203125 0.90625 76.3203125 -7.59375 76.3203125 C-7.59375 95.7903125 -7.59375 115.2603125 -7.59375 135.3203125 C-1.98375 135.3203125 3.62625 135.3203125 9.40625 135.3203125 C9.40625 142.5803125 9.40625 149.8403125 9.40625 157.3203125 C-10.39375 157.3203125 -30.19375 157.3203125 -50.59375 157.3203125 C-50.59375 150.0603125 -50.59375 142.8003125 -50.59375 135.3203125 C-45.97375 135.3203125 -41.35375 135.3203125 -36.59375 135.3203125 C-36.59375 116.1803125 -36.59375 97.0403125 -36.59375 77.3203125 C-40.55375 77.3203125 -44.51375 77.3203125 -48.59375 77.3203125 C-48.59375 70.0603125 -48.59375 62.8003125 -48.59375 55.3203125 C-44.63375 55.3203125 -40.67375 55.3203125 -36.59375 55.3203125 C-36.61695313 54.31613281 -36.64015625 53.31195313 -36.6640625 52.27734375 C-36.92348137 36.41183207 -35.89620925 22.26235326 -24.53515625 10.140625 C-16.94151428 3.02063072 -10.17328466 0.90674928 0 0 Z " fill="#FEFCF9" transform="translate(491.59375,317.6796875)"/>
<path d="M0 0 C42.57 0 85.14 0 129 0 C132 42 132 42 132 50 C119.625 50.495 119.625 50.495 107 51 C105.0625 40.125 105.0625 40.125 104.45727539 36.69970703 C104.21738892 35.36721924 104.21738892 35.36721924 103.97265625 34.0078125 C103.81031494 33.09660645 103.64797363 32.18540039 103.48071289 31.24658203 C103.09326213 28.97805304 103.09326213 28.97805304 102 27 C91.11 26.505 91.11 26.505 80 26 C80 57.02 80 88.04 80 120 C87.92 120 95.84 120 104 120 C104 128.58 104 137.16 104 146 C78.59 146 53.18 146 27 146 C27 137.42 27 128.84 27 120 C34.26 120 41.52 120 49 120 C49 88.98 49 57.96 49 26 C41.41 26 33.82 26 26 26 C26 28.64 26 31.28 26 34 C25.71325582 36.00720923 25.39764263 38.01178687 25 40 C24.34 40 23.68 40 23 40 C22.67 43.63 22.34 47.26 22 51 C13.75 50.67 5.5 50.34 -3 50 C-3 33.30336028 -1.34935344 16.64202581 0 0 Z " fill="#FEFDFB" transform="translate(200,329)"/>
<path d="M0 0 C1.89105469 -0.05607422 1.89105469 -0.05607422 3.8203125 -0.11328125 C19.31840101 -0.25678207 30.18888688 5.32000859 41.07421875 15.9609375 C50.04309564 26.51858687 49.90501701 42.23471341 49.125 55.375 C48.63 56.365 48.63 56.365 48.125 57.375 C26.345 57.375 4.565 57.375 -17.875 57.375 C-14.80982781 70.5834947 -14.80982781 70.5834947 -5.9375 79.375 C0.22244206 81.53930397 11.1147072 81.87928867 17.125 79.375 C18.79222284 77.67573124 18.79222284 77.67573124 20.1875 75.5625 C20.91646484 74.53189453 20.91646484 74.53189453 21.66015625 73.48046875 C22.64384489 72.06658027 23.57904678 70.61781412 24.46484375 69.140625 C26.125 67.375 26.125 67.375 28.65625 66.87890625 C35.89077746 67.02169298 42.25197356 68.10203063 49.125 70.375 C48.84515486 79.0501994 46.08391285 85.18812672 40.08984375 91.52734375 C35.00539731 96.17462284 35.00539731 96.17462284 31.9453125 96.87109375 C31.34460938 97.03738281 30.74390625 97.20367187 30.125 97.375 C29.63 98.86 29.63 98.86 29.125 100.375 C27.805 100.375 26.485 100.375 25.125 100.375 C25.125 101.035 25.125 101.695 25.125 102.375 C9.34764576 107.17931006 -9.78860615 106.26995112 -24.58203125 99.0546875 C-36.19808371 92.68066172 -43.71061023 82.99364178 -47.50170898 70.27197266 C-48.87179686 64.70998852 -49.22479764 59.33877532 -49.1875 53.625 C-49.18403564 52.75681641 -49.18057129 51.88863281 -49.17700195 50.99414062 C-49.02832543 42.12940531 -48.34826038 33.61862361 -42.875 26.375 C-42.41996094 25.26253906 -41.96492187 24.15007812 -41.49609375 23.00390625 C-36.70382311 12.27614861 -27.55505762 5.54483731 -16.875 1.375 C-11.46121156 -0.42959615 -5.66561912 0.06182719 0 0 Z " fill="#FEFCF9" transform="translate(654.875,372.625)"/>
<path d="M0 0 C7.32921673 5.67319837 12.93567011 13.18844927 15.125 22.3125 C15.49182094 26.63402031 15.45474597 30.9163051 15.375 35.25 C15.36984375 36.39791016 15.3646875 37.54582031 15.359375 38.72851562 C15.27952219 47.15797781 15.27952219 47.15797781 14.125 48.3125 C12.06943339 48.40663687 10.01059819 48.42992998 7.95288086 48.42602539 C7.30899918 48.42617142 6.66511749 48.42631744 6.00172424 48.4264679 C3.86439697 48.42576885 1.72715587 48.41797691 -0.41015625 48.41015625 C-1.88846285 48.40829204 -3.36677007 48.40686815 -4.84507751 48.40586853 C-8.74298802 48.40204359 -12.64086149 48.39221352 -16.53875732 48.38116455 C-20.51346333 48.37094992 -24.48817529 48.3663708 -28.46289062 48.36132812 C-36.266944 48.35059122 -44.07096682 48.33351509 -51.875 48.3125 C-51.545 51.9425 -51.215 55.5725 -50.875 59.3125 C-50.215 59.3125 -49.555 59.3125 -48.875 59.3125 C-47.49964661 61.28383986 -46.17288956 63.28931922 -44.875 65.3125 C-42.60219885 68.77469326 -42.60219885 68.77469326 -39.25 70.94140625 C-35.7952984 71.48120338 -32.36161172 71.45644898 -28.875 71.4375 C-27.80765625 71.44330078 -27.80765625 71.44330078 -26.71875 71.44921875 C-21.67745925 71.54880824 -21.67745925 71.54880824 -16.875 70.3125 C-15.17143849 68.6519525 -15.17143849 68.6519525 -13.75 66.5625 C-13.25242187 65.88703125 -12.75484375 65.2115625 -12.2421875 64.515625 C-10.79856944 62.18933761 -9.81701344 59.87836519 -8.875 57.3125 C-0.72015697 57.75901878 7.16764468 58.42400323 15.125 60.3125 C16.44798745 64.29649629 15.90502713 66.63310966 14.07983398 70.37597656 C13.76473877 70.9737793 13.44964355 71.57158203 13.125 72.1875 C12.80539307 72.80592773 12.48578613 73.42435547 12.15649414 74.06152344 C8.83539214 80.23660846 5.4352318 85.08648822 -1.25 87.5625 C-2.11625 87.81 -2.9825 88.0575 -3.875 88.3125 C-4.37 89.7975 -4.37 89.7975 -4.875 91.3125 C-6.195 91.3125 -7.515 91.3125 -8.875 91.3125 C-8.875 91.9725 -8.875 92.6325 -8.875 93.3125 C-17.955689 94.83729336 -26.67017634 95.66521883 -35.875 95.3125 C-36.90753906 95.28285156 -37.94007813 95.25320313 -39.00390625 95.22265625 C-51.20926276 94.58355074 -61.67575718 89.86445836 -70.140625 80.91796875 C-80.79505264 68.07346431 -84.03366168 53.95327899 -82.875 37.3125 C-80.5618061 18.98686386 -71.93001956 5.76102885 -57.5625 -5.5 C-39.65086992 -13.4144412 -15.85382332 -10.50528884 0 0 Z " fill="#FEFCFA" transform="translate(414.875,381.6875)"/>
<path d="M0 0 C1.21913086 -0.05607422 1.21913086 -0.05607422 2.46289062 -0.11328125 C7.86813501 -0.19068332 12.34690121 0.60541912 16.98901367 3.484375 C20.80689543 7.44282677 20.84951613 12.81059692 21.375 18.0625 C21.60026367 19.7630957 21.60026367 19.7630957 21.83007812 21.49804688 C22.67434671 28.24830493 22.8125 34.48958015 22.8125 41.375 C15.5525 41.705 8.2925 42.035 0.8125 42.375 C-0.9375 34 -0.9375 34 -1.45996094 31.36572266 C-2.31475799 27.06360258 -2.31475799 27.06360258 -5.0546875 23.83984375 C-7.3493906 23.33971615 -9.2167567 23.1437711 -11.5625 23.3125 C-12.29210937 23.34214844 -13.02171875 23.37179687 -13.7734375 23.40234375 C-17.73327088 24.9978106 -20.04794337 27.71884982 -22.1875 31.375 C-23.04082342 35.18227158 -23.02634485 38.88724523 -22.9921875 42.77734375 C-23.00589386 43.85504532 -23.01960022 44.93274689 -23.03372192 46.04310608 C-23.07094819 49.46666489 -23.06731165 52.88876791 -23.0625 56.3125 C-23.08063177 58.64129864 -23.10143595 60.97007811 -23.125 63.29882812 C-23.17678275 68.99112858 -23.19193516 74.68247696 -23.1875 80.375 C-17.2475 80.375 -11.3075 80.375 -5.1875 80.375 C-5.1875 87.305 -5.1875 94.235 -5.1875 101.375 C-24.9875 101.375 -44.7875 101.375 -65.1875 101.375 C-65.1875 94.445 -65.1875 87.515 -65.1875 80.375 C-60.5675 80.375 -55.9475 80.375 -51.1875 80.375 C-51.1875 61.235 -51.1875 42.095 -51.1875 22.375 C-56.1375 22.375 -61.0875 22.375 -66.1875 22.375 C-66.1875 15.445 -66.1875 8.515 -66.1875 1.375 C-52.6575 1.375 -39.1275 1.375 -25.1875 1.375 C-24.6925 8.8 -24.6925 8.8 -24.1875 16.375 C-23.671875 15.199375 -23.15625 14.02375 -22.625 12.8125 C-20.3239468 8.2103936 -17.30273496 4.48850013 -13.1875 1.375 C-8.83959665 0.03988044 -4.51264601 0.07690024 0 0 Z " fill="#FEFDFB" transform="translate(781.1875,372.625)"/>
<path d="M0 0 C0.33 0 0.66 0 1 0 C1.05859857 3.35409194 1.09379582 6.70805017 1.125 10.0625 C1.14175781 11.00544922 1.15851563 11.94839844 1.17578125 12.91992188 C1.21372771 18.36523938 0.81252643 22.85499388 -1 28 C-2.16917969 28.04898437 -3.33835937 28.09796875 -4.54296875 28.1484375 C-6.09116804 28.22350171 -7.63934401 28.29904795 -9.1875 28.375 C-9.95642578 28.4059375 -10.72535156 28.436875 -11.51757812 28.46875 C-15.66698321 28.68245327 -19.32049186 28.87960548 -23 31 C-24.26115144 32.70831774 -24.26115144 32.70831774 -25 34.75 C-26.87446046 38.89951126 -29.17867677 43.92984291 -33.69921875 45.64453125 C-41.57756017 46.86172831 -51.15541925 47.51451071 -58 43 C-62.57217679 38.87521999 -65.70792849 34.06366894 -67 28 C-67 26.02 -67 24.04 -67 22 C-45.22 22 -23.44 22 -1 22 C-0.67 14.74 -0.34 7.48 0 0 Z " fill="#D89815" transform="translate(704,408)"/>
<path d="M0 0 C0.33 0 0.66 0 1 0 C1.19157797 4.88523811 0.87404046 7.31489886 -1 12 C-6.61 12 -12.22 12 -18 12 C-18 12.66 -18 13.32 -18 14 C-18.77085937 14.061875 -19.54171875 14.12375 -20.3359375 14.1875 C-23.1743421 14.74275301 -23.1743421 14.74275301 -24.4765625 17.25 C-24.85554688 18.1575 -25.23453125 19.065 -25.625 20 C-26.7890625 22.75 -26.7890625 22.75 -28 25 C-28.99 25.33 -29.98 25.66 -31 26 C-31.495 27.485 -31.495 27.485 -32 29 C-35.69953709 30.59605964 -39.96975917 30.1838831 -43.9375 30.1875 C-44.99227539 30.20586914 -44.99227539 30.20586914 -46.06835938 30.22460938 C-50.1608485 30.2361159 -53.41519158 30.03682296 -57 28 C-59.01953125 25.90625 -59.01953125 25.90625 -60.8125 23.5 C-61.41707031 22.7059375 -62.02164062 21.911875 -62.64453125 21.09375 C-64 19 -64 19 -64 17 C-64.66 17 -65.32 17 -66 17 C-67 14 -67 14 -67 6 C-45.22 5.67 -23.44 5.34 -1 5 C-0.67 3.35 -0.34 1.7 0 0 Z " fill="#DC9E0F" transform="translate(430,424)"/>
<path d="M0 0 C2.3125 2 2.3125 2 4 4 C4 4.66 4 5.32 4 6 C4.66 6 5.32 6 6 6 C7.75417412 10.49507119 8.28362108 14.1784417 8 19 C7 20 7 20 3.39819336 20.11352539 C1.79540144 20.11336625 0.1926044 20.10767063 -1.41015625 20.09765625 C-2.25219101 20.0962413 -3.09422577 20.09482635 -3.96177673 20.09336853 C-6.66205335 20.08775263 -9.36224828 20.07519748 -12.0625 20.0625 C-13.88867068 20.05748705 -15.71484266 20.05292379 -17.54101562 20.04882812 C-22.02737542 20.03777804 -26.51367384 20.02050279 -31 20 C-30.70153974 18.55683399 -30.39697536 17.11492948 -30.08984375 15.67358398 C-29.920896 14.87049301 -29.75194824 14.06740204 -29.57788086 13.23997498 C-28.85552173 10.43997505 -27.68982482 8.39868281 -26 6.0625 C-25.484375 5.33160156 -24.96875 4.60070312 -24.4375 3.84765625 C-19.03862857 -3.09165405 -7.57056109 -4.45327123 0 0 Z " fill="#DE9E07" transform="translate(393,394)"/>
<path d="M0 0 C1.40765625 -0.00386719 1.40765625 -0.00386719 2.84375 -0.0078125 C7.0113337 0.20056669 8.87831109 0.57912681 12.0625 3.375 C17.70331887 9.73900078 17.54871896 11.6121896 18.5 21.125 C5.96 21.125 -6.58 21.125 -19.5 21.125 C-18.3740458 10.99141221 -18.3740458 10.99141221 -15.625 7.75 C-15.11195313 7.12351562 -14.59890625 6.49703125 -14.0703125 5.8515625 C-13.55210937 5.28179687 -13.03390625 4.71203125 -12.5 4.125 C-12.02304687 3.57585937 -11.54609375 3.02671875 -11.0546875 2.4609375 C-7.83537919 -0.3054028 -4.07707385 -0.01120075 0 0 Z " fill="#DD9808" transform="translate(656.5,391.875)"/>
<path d="M0 0 C0.33 0 0.66 0 1 0 C1.10957031 1.03898437 1.21914063 2.07796875 1.33203125 3.1484375 C3.00987258 18.25263721 6.13092738 32.42104397 18 43 C32.8899715 53.1668085 49.36276831 55.0269303 67 52 C69.67810075 51.88803927 72.31732686 51.95374701 75 52 C75 51.34 75 50.68 75 50 C75.8971875 49.8453125 75.8971875 49.8453125 76.8125 49.6875 C79.37670761 48.88160618 80.15023742 47.9209073 82 46 C82.928125 45.4225 83.85625 44.845 84.8125 44.25 C89.79725857 40.73134689 93.4241389 36.54053143 96 31 C96.66 31 97.32 31 98 31 C98.99 28.525 98.99 28.525 100 26 C101.39571749 30.18715246 100.1088616 32.28765626 98.4140625 36.2421875 C93.34440433 46.1294214 85.63017618 53.0628157 75.25 57.05859375 C72.84149451 57.80766763 70.46175523 58.45387683 68 59 C67.27683594 59.18304688 66.55367188 59.36609375 65.80859375 59.5546875 C49.77547997 62.09679455 33.62036823 60.10051389 20 51 C16.81629831 48.51504679 13.72543432 45.98788355 11 43 C11 42.34 11 41.68 11 41 C10.34 41 9.68 41 9 41 C1.64684566 27.33998996 -0.2110057 15.3799712 0 0 Z " fill="#BB8814" transform="translate(331,423)"/>
<path d="M0 0 C1.40498732 2.66648657 2.4454448 5.24190849 3.3125 8.125 C7.30780858 20.21031151 13.00339482 28.41619625 24.2578125 34.64453125 C39.53757525 42.19734845 57.39744298 41.4873502 74 39 C74 38.34 74 37.68 74 37 C74.8971875 36.8453125 74.8971875 36.8453125 75.8125 36.6875 C78.35593798 35.88813378 79.146887 34.87571194 81 33 C82.26186744 32.11211886 83.53337882 31.23783914 84.8125 30.375 C90.8685177 25.90269227 94.37871244 19.96968516 97 13 C97.33 13 97.66 13 98 13 C98.83595005 20.28470756 97.36086257 24.34393977 93.1875 30.3515625 C85.23594545 39.97862319 75.1249473 44.9745539 63 47 C59.74387732 47.28195569 56.51716449 47.33445076 53.25 47.3125 C52.37746582 47.30758545 51.50493164 47.3026709 50.60595703 47.29760742 C34.94576222 47.01574126 21.2631692 42.1427075 10 31 C7.92685716 28.14626059 6.42675372 25.2183643 5 22 C4.62101563 21.18660156 4.24203125 20.37320312 3.8515625 19.53515625 C1.55310653 14.506265 -0.13527656 10.41629527 -0.0625 4.8125 C-0.05347656 3.91144531 -0.04445313 3.01039063 -0.03515625 2.08203125 C-0.02355469 1.39496094 -0.01195312 0.70789063 0 0 Z " fill="#B78011" transform="translate(606,436)"/>
<path d="M0 0 C7.92 0 15.84 0 24 0 C24 31.68 24 63.36 24 96 C16.74 96 9.48 96 2 96 C2 103.59 2 111.18 2 119 C26.42 119 50.84 119 76 119 C76 111.41 76 103.82 76 96 C68.41 96 60.82 96 53 96 C53 64.32 53 32.64 53 0 C60.92 0 68.84 0 77 0 C76.67 0.66 76.34 1.32 76 2 C65.11 1.505 65.11 1.505 54 1 C54 32.02 54 63.04 54 95 C61.92 95 69.84 95 78 95 C78 103.58 78 112.16 78 121 C52.59 121 27.18 121 1 121 C1 112.42 1 103.84 1 95 C8.26 95 15.52 95 23 95 C23 63.98 23 32.96 23 1 C15.41 1 7.82 1 0 1 C0 0.67 0 0.34 0 0 Z " fill="#EBD59F" transform="translate(226,354)"/>
<path d="M0 0 C0.33 0 0.66 0 1 0 C1.37993085 5.95224995 0.19576075 10.48195778 -2 16 C-2.25523437 16.68320312 -2.51046875 17.36640625 -2.7734375 18.0703125 C-6.13122295 25.92568212 -12.49400365 31.23849928 -20.3125 34.4375 C-21.86260502 34.99413997 -23.42493357 35.51850301 -25 36 C-25.59039063 36.19207031 -26.18078125 36.38414062 -26.7890625 36.58203125 C-38.87287048 38.86642604 -52.08442573 37.5176609 -62.375 30.6875 C-68.78078397 25.83494099 -72.95509696 20.90371254 -75 13 C-75.1875 10 -75.1875 10 -75 8 C-72.68263942 10.73117497 -70.72993425 13.4045837 -69.0625 16.5625 C-67.22694657 19.88089267 -65.13140309 21.80801783 -62 24 C-61.4225 24.515625 -60.845 25.03125 -60.25 25.5625 C-53.63890239 29.78625681 -46.36956418 30.55564161 -38.6875 30.5 C-37.76686768 30.49427979 -36.84623535 30.48855957 -35.89770508 30.48266602 C-25.30130212 30.2055566 -17.28878507 27.03630906 -9.55078125 19.71484375 C-7.68541118 17.65212974 -6.32892164 15.43635633 -5 13 C-4.34 13 -3.68 13 -3 13 C-2.86722656 12.31292969 -2.73445312 11.62585938 -2.59765625 10.91796875 C-2.42105469 10.01691406 -2.24445313 9.11585938 -2.0625 8.1875 C-1.88847656 7.29417969 -1.71445312 6.40085937 -1.53515625 5.48046875 C-1 3 -1 3 0 0 Z " fill="#B98414" transform="translate(603,446)"/>
<path d="M0 0 C25.41 0 50.82 0 77 0 C77 1.65 77 3.3 77 5 C75.34111261 6.65888739 73.34315218 6.12562525 71.12709045 6.13552856 C70.08288185 6.13249222 70.08288185 6.13249222 69.01757812 6.12939453 C68.2875206 6.13114685 67.55746307 6.13289917 66.80528259 6.13470459 C64.38058122 6.13912299 61.95595218 6.13618517 59.53125 6.1328125 C57.85355617 6.13348554 56.17586244 6.13445557 54.49816895 6.13571167 C50.97744826 6.13718863 47.4567529 6.13503416 43.93603516 6.13037109 C39.41289504 6.1246738 34.88981426 6.12795282 30.36667633 6.13394356 C26.90097605 6.13754923 23.43528993 6.13641056 19.96958923 6.13381577 C18.30134575 6.13314651 16.63310101 6.13397486 14.96485901 6.13629532 C12.63734506 6.13882195 10.30992852 6.13498113 7.98242188 6.12939453 C7.28628281 6.13141876 6.59014374 6.13344299 5.87290955 6.13552856 C1.11426274 6.11426274 1.11426274 6.11426274 0 5 C0 3.35 0 1.7 0 0 Z " fill="#CA9311" transform="translate(227,475)"/>
<path d="M0 0 C0.33 0 0.66 0 1 0 C1.19157797 4.88523811 0.87404046 7.31489886 -1 12 C-22.78 12 -44.56 12 -67 12 C-67 10.02 -67 8.04 -67 6 C-45.22 5.67 -23.44 5.34 -1 5 C-0.67 3.35 -0.34 1.7 0 0 Z " fill="#BB8914" transform="translate(430,424)"/>
<path d="M0 0 C7.26 0 14.52 0 22 0 C23.86925857 2.80388785 24.33995511 3.92395997 24.8515625 7.08984375 C24.98046875 7.87423828 25.109375 8.65863281 25.2421875 9.46679688 C25.36851562 10.28212891 25.49484375 11.09746094 25.625 11.9375 C25.7590625 12.74896484 25.893125 13.56042969 26.03125 14.39648438 C26.61434446 18.02297492 27 21.30557372 27 25 C28.7015625 24.7525 28.7015625 24.7525 30.4375 24.5 C37.92138718 23.64572992 45.48015007 23.92229776 53 24 C53.042721 25.66611905 53.04063832 27.33382885 53 29 C49.73764057 32.26235943 40.75781035 31.05735506 36.2890625 31.06811523 C32.85912369 31.05992497 29.42977124 31.03543966 26 31 C24.16751687 22.71483692 23.07058841 14.41176605 22 6 C15.4 6.33 8.8 6.66 2 7 C1.67 20.53 1.34 34.06 1 48 C0.67 48 0.34 48 0 48 C0 32.16 0 16.32 0 0 Z " fill="#D3A330" transform="translate(280,355)"/>
<path d="M0 0 C0.33 0 0.66 0 1 0 C1.05789006 3.45826342 1.09355821 6.91640293 1.125 10.375 C1.14175781 11.35984375 1.15851563 12.3446875 1.17578125 13.359375 C1.18544922 14.77089844 1.18544922 14.77089844 1.1953125 16.2109375 C1.21102295 17.51490479 1.21102295 17.51490479 1.22705078 18.84521484 C1 21 1 21 -1 23 C-3.39099121 23.24723816 -3.39099121 23.24723816 -6.42773438 23.24291992 C-7.56231079 23.24599655 -8.69688721 23.24907318 -9.86584473 23.25224304 C-11.09605347 23.24505753 -12.32626221 23.23787201 -13.59375 23.23046875 C-15.48015198 23.22978142 -15.48015198 23.22978142 -17.40466309 23.2290802 C-20.0679261 23.22605442 -22.73084515 23.21922525 -25.39404297 23.20581055 C-28.81064219 23.18882064 -32.22709364 23.18499621 -35.64373016 23.18575573 C-38.8979181 23.18541867 -42.15207495 23.17658133 -45.40625 23.16796875 C-46.63645874 23.16685593 -47.86666748 23.1657431 -49.13415527 23.16459656 C-50.8360199 23.15502678 -50.8360199 23.15502678 -52.57226562 23.14526367 C-53.57439087 23.14145187 -54.57651611 23.13764008 -55.60900879 23.13371277 C-58 23 -58 23 -60 22 C-60 20.35 -60 18.7 -60 17 C-40.2 17 -20.4 17 0 17 C0 11.39 0 5.78 0 0 Z " fill="#C1890B" transform="translate(501,458)"/>
<path d="M0 0 C20.46 0 40.92 0 62 0 C62 1.65 62 3.3 62 5 C60.24481894 6.75518106 57.77650285 6.12760783 55.39453125 6.12939453 C54.19658936 6.13254669 52.99864746 6.13569885 51.7644043 6.13894653 C50.46027588 6.1369223 49.15614746 6.13489807 47.8125 6.1328125 C46.47110985 6.1334856 45.12971981 6.13445568 43.78833008 6.13571167 C40.97378379 6.13718836 38.15926918 6.13503504 35.34472656 6.13037109 C31.72959369 6.12467381 28.11453505 6.12795297 24.49940491 6.13394356 C21.72855058 6.13754997 18.95771398 6.13641022 16.18685913 6.13381577 C14.20310417 6.13282033 12.21934853 6.13586741 10.2355957 6.13894653 C9.03765381 6.13579437 7.83971191 6.13264221 6.60546875 6.12939453 C5.54481201 6.12859894 4.48415527 6.12780334 3.39135742 6.12698364 C1 6 1 6 0 5 C0 3.35 0 1.7 0 0 Z " fill="#C18817" transform="translate(715,475)"/>
<path d="M0 0 C21.45 0 42.9 0 65 0 C65 1.32 65 2.64 65 4 C43.88 4 22.76 4 1 4 C0.67 2.68 0.34 1.36 0 0 Z " fill="#B17906" transform="translate(637,431)"/>
<path d="M0 0 C0 1.98 0 3.96 0 6 C-2.78133158 7.39066579 -5.03644872 7.09438913 -8.14453125 7.0625 C-9.37880859 7.05476563 -10.61308594 7.04703125 -11.88476562 7.0390625 C-14.49153762 7.01313737 -17.09830847 6.98709675 -19.70507812 6.9609375 C-21.56229492 6.94933594 -21.56229492 6.94933594 -23.45703125 6.9375 C-25.1582312 6.92009766 -25.1582312 6.92009766 -26.89379883 6.90234375 C-30.34151927 6.9251254 -30.34151927 6.9251254 -35 8 C-35.33 21.2 -35.66 34.4 -36 48 C-36.33 48 -36.66 48 -37 48 C-37 32.49 -37 16.98 -37 1 C-31.080625 0.835 -25.16125 0.67 -19.0625 0.5 C-17.19215088 0.44779297 -15.32180176 0.39558594 -13.39477539 0.34179688 C-11.92073598 0.30077025 -10.44669629 0.25975391 -8.97265625 0.21875 C-7.81437317 0.1863623 -7.81437317 0.1863623 -6.63269043 0.15332031 C-1.1140718 0 -1.1140718 0 0 0 Z " fill="#BA840D" transform="translate(594,394)"/>
<path d="M0 0 C4.95 0 9.9 0 15 0 C15 19.14 15 38.28 15 58 C10.38 58 5.76 58 1 58 C1 64.93 1 71.86 1 79 C20.8 79 40.6 79 61 79 C61 79.33 61 79.66 61 80 C40.87 80 20.74 80 0 80 C0 72.41 0 64.82 0 57 C4.29 57 8.58 57 13 57 C13 38.85 13 20.7 13 2 C8.71 2 4.42 2 0 2 C0 1.34 0 0.68 0 0 Z " fill="#DFB96B" transform="translate(715,395)"/>
<path d="M0 0 C1.40765625 -0.00386719 1.40765625 -0.00386719 2.84375 -0.0078125 C7.0113337 0.20056669 8.87831109 0.57912681 12.0625 3.375 C17.70331887 9.73900078 17.54871896 11.6121896 18.5 21.125 C5.96 21.125 -6.58 21.125 -19.5 21.125 C-18.3740458 10.99141221 -18.3740458 10.99141221 -15.625 7.75 C-15.11195313 7.12351562 -14.59890625 6.49703125 -14.0703125 5.8515625 C-13.55210937 5.28179687 -13.03390625 4.71203125 -12.5 4.125 C-12.02304687 3.57585937 -11.54609375 3.02671875 -11.0546875 2.4609375 C-7.83537919 -0.3054028 -4.07707385 -0.01120075 0 0 Z M-11.5 8.125 C-12.04527344 8.47691406 -12.59054687 8.82882812 -13.15234375 9.19140625 C-15.09681292 10.50399673 -15.09681292 10.50399673 -17.5 13.125 C-17.83 15.435 -18.16 17.745 -18.5 20.125 C-6.62 20.125 5.26 20.125 17.5 20.125 C17.5 19.135 17.5 18.145 17.5 17.125 C16.84 17.125 16.18 17.125 15.5 17.125 C15.4175 16.403125 15.335 15.68125 15.25 14.9375 C14.19126668 10.96725006 12.22314873 8.22051178 8.73046875 6 C2.31216968 3.48213837 -5.87592899 4.24171287 -11.5 8.125 Z " fill="#C3912A" transform="translate(656.5,391.875)"/>
<path d="M0 0 C24.42 0 48.84 0 74 0 C74 0.99 74 1.98 74 3 C49.91 3 25.82 3 1 3 C0.67 2.01 0.34 1.02 0 0 Z " fill="#B68206" transform="translate(228,476)"/>
<path d="M0 0 C4.62 0 9.24 0 14 0 C14 0.33 14 0.66 14 1 C10.04 1 6.08 1 2 1 C2 7.27 2 13.54 2 20 C20.81 20 39.62 20 59 20 C59 13.73 59 7.46 59 1 C53.72 1 48.44 1 43 1 C43 0.67 43 0.34 43 0 C48.61 0 54.22 0 60 0 C60 7.26 60 14.52 60 22 C40.2 22 20.4 22 0 22 C0 14.74 0 7.48 0 0 Z " fill="#F0E0BE" transform="translate(441,453)"/>
<path d="M0 0 C2.3125 2 2.3125 2 4 4 C4 4.66 4 5.32 4 6 C4.66 6 5.32 6 6 6 C7.60725635 9.21451269 7.05748185 12.43612536 7 16 C5.22305968 13.81920961 4.04450378 12.14035806 3.1875 9.4375 C2.14115544 6.82651559 2.14115544 6.82651559 -0.375 5.1875 C-6.31755187 3.24080197 -13.02972384 3.00990795 -19 5 C-20.03789581 6.64333504 -21.03567924 8.31243867 -22 10 C-23.5625 11.8125 -23.5625 11.8125 -25 13 C-25.66 13 -26.32 13 -27 13 C-27.33 14.65 -27.66 16.3 -28 18 C-28.33 18 -28.66 18 -29 18 C-29.78045417 11.8864423 -28.04122881 8.87670033 -24.5078125 3.91796875 C-19.04414123 -3.03193434 -7.65448715 -4.5026395 0 0 Z " fill="#C39426" transform="translate(393,394)"/>
<path d="M0 0 C1 2 1 2 0.44140625 4.1640625 C0.15136719 4.97617187 -0.13867188 5.78828125 -0.4375 6.625 C-0.86869141 7.85089844 -0.86869141 7.85089844 -1.30859375 9.1015625 C-1.53675781 9.72804688 -1.76492187 10.35453125 -2 11 C-6.14640909 10.69484916 -10.29199318 10.37965489 -14.4375 10.0625 C-15.62150391 9.97548828 -16.80550781 9.88847656 -18.02539062 9.79882812 C-19.15009766 9.71181641 -20.27480469 9.62480469 -21.43359375 9.53515625 C-22.99678345 9.41732788 -22.99678345 9.41732788 -24.59155273 9.29711914 C-27 9 -27 9 -28 8 C-28.04063832 6.33382885 -28.042721 4.66611905 -28 3 C-24.62501842 2.97077354 -21.25006979 2.95312532 -17.875 2.9375 C-16.44800781 2.92493164 -16.44800781 2.92493164 -14.9921875 2.91210938 C-10.20981513 2.89550392 -5.70228431 2.99462945 -1 4 C-0.67 2.68 -0.34 1.36 0 0 Z " fill="#D4A327" transform="translate(224,376)"/>
<path d="M0 0 C7.26 0 14.52 0 22 0 C23 1 23 1 23.0625 4.5625 C23.041875 5.696875 23.02125 6.83125 23 8 C22.67 7.34 22.34 6.68 22 6 C15.4 6.33 8.8 6.66 2 7 C1.67 20.53 1.34 34.06 1 48 C0.67 48 0.34 48 0 48 C0 32.16 0 16.32 0 0 Z " fill="#CE9918" transform="translate(280,355)"/>
<path d="M0 0 C19.14 0 38.28 0 58 0 C58 0.99 58 1.98 58 3 C38.86 3 19.72 3 0 3 C0 2.01 0 1.02 0 0 Z " fill="#B47A07" transform="translate(717,476)"/>
<path d="M0 0 C7.59 0 15.18 0 23 0 C23 1.98 23 3.96 23 6 C22.10692139 6.02187378 22.10692139 6.02187378 21.19580078 6.04418945 C18.50486949 6.11854344 15.81519667 6.21524187 13.125 6.3125 C11.71927734 6.34633789 11.71927734 6.34633789 10.28515625 6.38085938 C8.94130859 6.4340332 8.94130859 6.4340332 7.5703125 6.48828125 C6.74289551 6.51446533 5.91547852 6.54064941 5.06298828 6.56762695 C2.60672068 6.83096637 2.60672068 6.83096637 1 10 C0.56261304 11.71444889 0.19151312 13.44667784 -0.125 15.1875 C-0.29257813 16.08855469 -0.46015625 16.98960937 -0.6328125 17.91796875 C-0.75398437 18.60503906 -0.87515625 19.29210937 -1 20 C-1.33 20 -1.66 20 -2 20 C-1.85637523 18.16649232 -1.70997295 16.33320217 -1.5625 14.5 C-1.48128906 13.4790625 -1.40007812 12.458125 -1.31640625 11.40625 C-0.96241072 7.59533514 -0.47472073 3.79776581 0 0 Z " fill="#B98606" transform="translate(226,355)"/>
<path d="M0 0 C0.33 0 0.66 0 1 0 C1.37993085 5.95224995 0.19576075 10.48195778 -2 16 C-2.25523437 16.68320312 -2.51046875 17.36640625 -2.7734375 18.0703125 C-6.13122295 25.92568212 -12.49400365 31.23849928 -20.3125 34.4375 C-21.86260502 34.99413997 -23.42493357 35.51850301 -25 36 C-25.59039063 36.19207031 -26.18078125 36.38414062 -26.7890625 36.58203125 C-36.24414526 38.36947622 -48.18788284 37.98019418 -57 34 C-58.7890625 32.39453125 -58.7890625 32.39453125 -60 31 C-59.28199219 31.2165625 -58.56398438 31.433125 -57.82421875 31.65625 C-50.88141523 33.52380362 -44.42206114 34.32415936 -37.25 34.375 C-36.08150513 34.39530273 -36.08150513 34.39530273 -34.8894043 34.41601562 C-25.37169359 34.34362995 -17.3187458 31.06107312 -10 25 C-7.94988811 22.35000619 -7.94988811 22.35000619 -7 20 C-7.66 19.67 -8.32 19.34 -9 19 C-7.7260411 16.96166576 -6.38938077 14.96147874 -5 13 C-4.34 13 -3.68 13 -3 13 C-2.86722656 12.31292969 -2.73445312 11.62585938 -2.59765625 10.91796875 C-2.42105469 10.01691406 -2.24445312 9.11585938 -2.0625 8.1875 C-1.88847656 7.29417969 -1.71445312 6.40085937 -1.53515625 5.48046875 C-1 3 -1 3 0 0 Z " fill="#CC8D07" transform="translate(603,446)"/>
<path d="M0 0 C2.1953125 0.71484375 2.1953125 0.71484375 4 2 C5.08203125 4.3125 5.08203125 4.3125 5.8125 7 C6.06644531 7.886875 6.32039063 8.77375 6.58203125 9.6875 C7 12 7 12 6 14 C3.2160817 12.60804085 3.02101003 10.84424221 2 8 C-4.02966487 6.85494655 -4.02966487 6.85494655 -9.875 8.1875 C-11.96686996 9.97174202 -13.49599915 11.70441975 -15 14 C-15.46105691 9.29721953 -15.64522502 6.05386753 -13.125 1.9375 C-8.79346745 -0.74805018 -4.98198925 -0.76957558 0 0 Z " fill="#C7931E" transform="translate(500,340)"/>
<path d="M0 0 C0.125 2.375 0.125 2.375 0 5 C-2 7 -2 7 -4.01538086 7.21118164 C-4.82370361 7.19434326 -5.63202637 7.17750488 -6.46484375 7.16015625 C-7.34720703 7.14919922 -8.22957031 7.13824219 -9.13867188 7.12695312 C-10.5240918 7.09504883 -10.5240918 7.09504883 -11.9375 7.0625 C-13.75903472 7.02803508 -15.58065793 6.99790208 -17.40234375 6.97265625 C-18.21179443 6.95468994 -19.02124512 6.93672363 -19.85522461 6.91821289 C-22.18729826 6.90696161 -22.18729826 6.90696161 -25 8 C-25 5.69 -25 3.38 -25 1 C-21.02084729 0.83299906 -17.04167558 0.66645506 -13.0625 0.5 C-11.35803711 0.42845703 -11.35803711 0.42845703 -9.61914062 0.35546875 C-7.99975586 0.28779297 -7.99975586 0.28779297 -6.34765625 0.21875 C-5.34742432 0.17685547 -4.34719238 0.13496094 -3.31665039 0.09179688 C-1 0 -1 0 0 0 Z " fill="#BC850A" transform="translate(510,394)"/>
<path d="M0 0 C0.33 1.65 0.66 3.3 1 5 C-2.66469354 6.83234677 -6.96154128 6.7267631 -11 7.125 C-11.928125 7.22425781 -12.85625 7.32351563 -13.8125 7.42578125 C-15.1428125 7.55919922 -15.1428125 7.55919922 -16.5 7.6953125 C-17.3146875 7.77797363 -18.129375 7.86063477 -18.96875 7.94580078 C-21 8 -21 8 -23 7 C-23 5.35 -23 3.7 -23 2 C-15.27279225 0.76892281 -7.8316181 -0.2700558 0 0 Z " fill="#C2850D" transform="translate(804,414)"/>
<path d="M0 0 C2 2 2 2 2 6 C1.35933594 5.93039062 0.71867188 5.86078125 0.05859375 5.7890625 C-4.76534325 5.48711711 -8.16031888 5.49766191 -12.0625 8.5625 C-15.26329122 11.71069606 -15.90977375 14.48868765 -16 19 C-16.33 19 -16.66 19 -17 19 C-18.04300804 6.76535017 -18.04300804 6.76535017 -15.79296875 2.95703125 C-11.2520827 -0.66929696 -5.58831607 -0.97054849 0 0 Z " fill="#B97F0C" transform="translate(776,397)"/>
<path d="M0 0 C0.33 0 0.66 0 1 0 C1 1.98 1 3.96 1 6 C-1.78133158 7.39066579 -4.03644872 7.09438913 -7.14453125 7.0625 C-8.37880859 7.05476563 -9.61308594 7.04703125 -10.88476562 7.0390625 C-13.49153762 7.01313737 -16.09830847 6.98709675 -18.70507812 6.9609375 C-20.56229492 6.94933594 -20.56229492 6.94933594 -22.45703125 6.9375 C-24.1582312 6.92009766 -24.1582312 6.92009766 -25.89379883 6.90234375 C-29.34151927 6.9251254 -29.34151927 6.9251254 -34 8 C-34.33 21.2 -34.66 34.4 -35 48 C-35.33 48 -35.66 48 -36 48 C-36 33.81 -36 19.62 -36 5 C-24.78 4.67 -13.56 4.34 -2 4 C-1.34 2.68 -0.68 1.36 0 0 Z " fill="#D4960F" transform="translate(593,394)"/>
<path d="M0 0 C0.33 0.99 0.66 1.98 1 3 C7.27 3 13.54 3 20 3 C20 4.65 20 6.3 20 8 C13.62694402 8.74507544 7.41688675 9.10349817 1 9 C-0.4783226 6.04335481 -0.06032783 3.25770263 0 0 Z " fill="#BE880E" transform="translate(507,354)"/>
<path d="M0 0 C0.66 0.33 1.32 0.66 2 1 C-4.05207427 5.51712789 -9.63616751 8.30534318 -17 10 C-17.72574219 10.18433594 -18.45148438 10.36867188 -19.19921875 10.55859375 C-32.67638041 12.68260946 -48.03614315 11.97891649 -60 5 C-58.25 4.375 -58.25 4.375 -56 4 C-55.4740625 4.28875 -54.948125 4.5775 -54.40625 4.875 C-50.82623502 6.54877324 -47.13297733 7.00321605 -43.25 7.625 C-42.4765625 7.7590625 -41.703125 7.893125 -40.90625 8.03125 C-33.14472836 9.30747336 -25.9042256 9.29218276 -18.125 7.875 C-17.43390137 7.7502832 -16.74280273 7.62556641 -16.03076172 7.49707031 C-10.58167053 6.38615226 -6.37519997 4.35183727 -1.8203125 1.109375 C-1.21960938 0.74328125 -0.61890625 0.3771875 0 0 Z " fill="#CC9006" transform="translate(416,472)"/>
<path d="M0 0 C0.88365234 0.00451172 1.76730469 0.00902344 2.67773438 0.01367188 C4.84768559 0.02540134 7.01760172 0.04333505 9.1875 0.0625 C9.1875 1.0525 9.1875 2.0425 9.1875 3.0625 C1.09941011 4.66864551 -6.5699683 5.32555952 -14.8125 5.0625 C-14.8125 3.7425 -14.8125 2.4225 -14.8125 1.0625 C-9.89747242 -0.22985715 -5.03959898 -0.04885517 0 0 Z " fill="#B9860B" transform="translate(321.8125,379.9375)"/>
<path d="M0 0 C0.33 0 0.66 0 1 0 C1.10957031 1.03898437 1.21914063 2.07796875 1.33203125 3.1484375 C2.53785774 14.0034831 4.16938955 23.45734934 9.81640625 32.9921875 C10.97404595 34.95597233 12.00297458 36.95081411 13 39 C11.68 39.66 10.36 40.32 9 41 C1.64684566 27.33998996 -0.2110057 15.3799712 0 0 Z " fill="#CF991B" transform="translate(331,423)"/>
<path d="M0 0 C2.68756955 -0.02720824 5.37485798 -0.0469388 8.0625 -0.0625 C8.81466797 -0.07087891 9.56683594 -0.07925781 10.34179688 -0.08789062 C15.00633118 -0.10808341 19.39923173 0.22404041 24 1 C24 2.32 24 3.64 24 5 C20.74968216 4.86076462 17.49983939 4.71245815 14.25 4.5625 C13.32960937 4.52318359 12.40921875 4.48386719 11.4609375 4.44335938 C10.57148438 4.40146484 9.68203125 4.35957031 8.765625 4.31640625 C7.54020996 4.26141968 7.54020996 4.26141968 6.29003906 4.20532227 C4.0965577 4.00865725 2.11603587 3.59699406 0 3 C0 2.01 0 1.02 0 0 Z " fill="#BA8809" transform="translate(198,380)"/>
<path d="M0 0 C0.33 0 0.66 0 1 0 C1.83595005 7.28470756 0.36086257 11.34393977 -3.8125 17.3515625 C-9.19122723 23.86366439 -16.63022742 29.93198226 -25 32 C-26.34208543 31.7038656 -27.67766372 31.37458732 -29 31 C-27.89140625 30.46890625 -26.7828125 29.9378125 -25.640625 29.390625 C-24.17687294 28.67751502 -22.71334286 27.96394929 -21.25 27.25 C-20.52039063 26.90195312 -19.79078125 26.55390625 -19.0390625 26.1953125 C-15.00456876 24.21474285 -12.09287546 22.33309879 -9 19 C-8.34 19 -7.68 19 -7 19 C-5.5393715 16.35261084 -5 15.10551666 -5 12 C-4.39031953 10.31165408 -3.71162443 8.64797236 -3 7 C-2.73574219 6.37996094 -2.47148438 5.75992187 -2.19921875 5.12109375 C-1.47073768 3.41209787 -0.73585068 1.70583568 0 0 Z " fill="#CE8C07" transform="translate(703,449)"/>
<path d="M0 0 C0.33 0 0.66 0 1 0 C1.04241723 2.33294775 1.04092937 4.66702567 1 7 C0 8 0 8 -3.60180664 8.11352539 C-5.20459856 8.11336625 -6.8073956 8.10767063 -8.41015625 8.09765625 C-9.25219101 8.0962413 -10.09422577 8.09482635 -10.96177673 8.09336853 C-13.66205335 8.08775263 -16.36224828 8.07519748 -19.0625 8.0625 C-20.88867068 8.05748705 -22.71484266 8.05292379 -24.54101562 8.04882812 C-29.02737542 8.03777804 -33.51367384 8.02050279 -38 8 C-37.67 6.02 -37.34 4.04 -37 2 C-36.67 3.32 -36.34 4.64 -36 6 C-24.12 6 -12.24 6 0 6 C0 4.02 0 2.04 0 0 Z " fill="#E8C166" transform="translate(400,406)"/>
<path d="M0 0 C5.26427196 0.67490666 10.01877329 2.25419864 15 4 C18.3021228 5.1007076 20.94083279 5.20627072 24.41796875 5.31640625 C25.67158203 5.35830078 26.92519531 5.40019531 28.21679688 5.44335938 C30.18229492 5.50233398 30.18229492 5.50233398 32.1875 5.5625 C33.52279978 5.60570992 34.85808652 5.649325 36.19335938 5.69335938 C39.46213297 5.79956502 42.73098333 5.90160997 46 6 C46 6.33 46 6.66 46 7 C31.11496235 10.78226366 13.2325612 8.52439755 0 1 C0 0.67 0 0.34 0 0 Z " fill="#C98907" transform="translate(628,475)"/>
<path d="M0 0 C0.78503906 0.07863281 1.57007813 0.15726562 2.37890625 0.23828125 C4.4375 0.6875 4.4375 0.6875 6.4375 2.6875 C7.05689652 4.98040361 7.58701212 7.29799113 8.0625 9.625 C8.45308594 11.49478516 8.45308594 11.49478516 8.8515625 13.40234375 C9.4375 16.6875 9.4375 16.6875 9.4375 19.6875 C10.4275 19.44 10.4275 19.44 11.4375 19.1875 C15.16849794 18.56566701 18.65623378 18.62341074 22.4375 18.6875 C22.4375 19.0175 22.4375 19.3475 22.4375 19.6875 C17.47676578 21.01036246 12.52638488 20.77643197 7.4375 20.6875 C7.23253906 19.91664063 7.02757812 19.14578125 6.81640625 18.3515625 C6.54699219 17.34867187 6.27757812 16.34578125 6 15.3125 C5.73316406 14.31476563 5.46632813 13.31703125 5.19140625 12.2890625 C4.53565644 9.73332299 4.53565644 9.73332299 3.4375 7.6875 C4.0975 7.6875 4.7575 7.6875 5.4375 7.6875 C4.7775 6.0375 4.1175 4.3875 3.4375 2.6875 C1.85455218 2.63312393 0.27105744 2.59453729 -1.3125 2.5625 C-2.19421875 2.53929687 -3.0759375 2.51609375 -3.984375 2.4921875 C-6.6760858 2.69610498 -8.26154974 3.32198279 -10.5625 4.6875 C-7.54479829 0.23279748 -5.28781864 -0.58366367 0 0 Z " fill="#D8B266" transform="translate(772.5625,395.3125)"/>
<path d="M0 0 C6.93 0.495 6.93 0.495 14 1 C14 2.65 14 4.3 14 6 C9.94392005 6.98329211 6.16937798 7.23600253 2 7 C1.34 6.34 0.68 5.68 0 5 C0 3.35 0 1.7 0 0 Z " fill="#BB840A" transform="translate(513,394)"/>
<path d="M0 0 C-1.65 0.33 -3.3 0.66 -5 1 C-5 1.66 -5 2.32 -5 3 C-12.06474824 5.18443749 -18.70106267 5.29987987 -26.0625 5.25 C-27.20783203 5.25773437 -28.35316406 5.26546875 -29.53320312 5.2734375 C-35.40378765 5.25985604 -40.46864964 5.02307735 -46 3 C-42.92431074 2.05417301 -40.61506761 2.01347533 -37.4375 2.4375 C-27.16215935 3.53949306 -18.41477215 2.69380109 -8.37329102 0.33520508 C-7.57850342 0.15111084 -6.78371582 -0.0329834 -5.96484375 -0.22265625 C-5.2493335 -0.39547119 -4.53382324 -0.56828613 -3.79663086 -0.74633789 C-2 -1 -2 -1 0 0 Z " fill="#E2CEA5" transform="translate(685,472)"/>
<path d="M0 0 C4.29 0.33 8.58 0.66 13 1 C13 2.98 13 4.96 13 7 C11.39667209 7.08121924 9.79215974 7.13929134 8.1875 7.1875 C7.29417969 7.22230469 6.40085937 7.25710938 5.48046875 7.29296875 C3 7 3 7 1.17578125 5.73828125 C0 4 0 4 0 0 Z " fill="#C28A0A" transform="translate(442,394)"/>
<path d="M0 0 C0.33 0 0.66 0 1 0 C1.042721 1.66611905 1.04063832 3.33382885 1 5 C0 6 0 6 -2.39808655 6.12025452 C-3.46175949 6.11803391 -4.52543243 6.11581329 -5.62133789 6.11352539 C-6.82250748 6.11344986 -8.02367706 6.11337433 -9.26124573 6.11329651 C-10.5685112 6.10813522 -11.87577667 6.10297394 -13.22265625 6.09765625 C-14.56644132 6.09579198 -15.91022707 6.09436812 -17.25401306 6.09336853 C-20.79682277 6.08954402 -24.3395917 6.07971432 -27.88238525 6.06866455 C-31.49515227 6.05844899 -35.10792584 6.0538706 -38.72070312 6.04882812 C-45.8138188 6.03809198 -52.90690674 6.02101636 -60 6 C-60 5.67 -60 5.34 -60 5 C-40.53 4.67 -21.06 4.34 -1 4 C-0.67 2.68 -0.34 1.36 0 0 Z " fill="#D59008" transform="translate(776,475)"/>
<path d="M0 0 C7.59 0 15.18 0 23 0 C23 0.33 23 0.66 23 1 C15.74 1 8.48 1 1 1 C1 2.32 1 3.64 1 5 C8.26 5 15.52 5 23 5 C23 5.33 23 5.66 23 6 C22.10692139 6.02187378 22.10692139 6.02187378 21.19580078 6.04418945 C18.50486949 6.11854344 15.81519667 6.21524187 13.125 6.3125 C11.71927734 6.34633789 11.71927734 6.34633789 10.28515625 6.38085938 C8.94130859 6.4340332 8.94130859 6.4340332 7.5703125 6.48828125 C6.74289551 6.51446533 5.91547852 6.54064941 5.06298828 6.56762695 C2.60672068 6.83096637 2.60672068 6.83096637 1 10 C0.56261304 11.71444889 0.19151312 13.44667784 -0.125 15.1875 C-0.29257813 16.08855469 -0.46015625 16.98960937 -0.6328125 17.91796875 C-0.75398437 18.60503906 -0.87515625 19.29210937 -1 20 C-1.33 20 -1.66 20 -2 20 C-1.85637523 18.16649232 -1.70997295 16.33320217 -1.5625 14.5 C-1.48128906 13.4790625 -1.40007812 12.458125 -1.31640625 11.40625 C-0.96241072 7.59533514 -0.47472073 3.79776581 0 0 Z " fill="#CD9B1E" transform="translate(226,355)"/>
<path d="M0 0 C4.29 0 8.58 0 13 0 C13 1.65 13 3.3 13 5 C9.04 5 5.08 5 1 5 C0.67 3.35 0.34 1.7 0 0 Z " fill="#C38507" transform="translate(715,397)"/>
<path d="M0 0 C6.93 0 13.86 0 21 0 C21 0.99 21 1.98 21 3 C14.07 3 7.14 3 0 3 C0 2.01 0 1.02 0 0 Z " fill="#B58306" transform="translate(281,356)"/>
<path d="M0 0 C2 2 2 2 3 12 C-9.54 12 -22.08 12 -35 12 C-35 10.35 -35 8.7 -35 7 C-34.67 8.32 -34.34 9.64 -34 11 C-22.12 11 -10.24 11 2 11 C2 10.01 2 9.02 2 8 C1.34 8 0.68 8 0 8 C-0.79953138 4.71303767 -1.09658936 3.28976808 0 0 Z " fill="#D9A335" transform="translate(672,401)"/>
<path d="M0 0 C0.33 0 0.66 0 1 0 C1.52184736 8.17560868 -1.14760314 14.84554869 -5 22 C-5.66 22 -6.32 22 -7 22 C-7 21.34 -7 20.68 -7 20 C-7.66 19.67 -8.32 19.34 -9 19 C-7.7260411 16.96166576 -6.38938077 14.96147874 -5 13 C-4.34 13 -3.68 13 -3 13 C-2.86722656 12.31292969 -2.73445312 11.62585938 -2.59765625 10.91796875 C-2.42105469 10.01691406 -2.24445312 9.11585938 -2.0625 8.1875 C-1.88847656 7.29417969 -1.71445312 6.40085937 -1.53515625 5.48046875 C-1 3 -1 3 0 0 Z " fill="#CE9213" transform="translate(603,446)"/>
<path d="M0 0 C0 0.99 0 1.98 0 3 C0.33 3.33 0.66 3.66 1 4 C1.60328125 3.26716797 1.60328125 3.26716797 2.21875 2.51953125 C4.46091008 0.60681136 5.59237801 0.62450152 8.5 0.6875 C9.2734375 0.69136719 10.046875 0.69523437 10.84375 0.69921875 C13 1 13 1 16 3 C15.43152344 2.93039062 14.86304688 2.86078125 14.27734375 2.7890625 C9.69289689 2.46761547 6.69401995 2.66718707 3 5.5625 C-0.25257438 8.70991032 -0.90894497 11.44724846 -1 16 C-1.33 16 -1.66 16 -2 16 C-2.05384521 13.70858714 -2.09272087 11.41681812 -2.125 9.125 C-2.14820313 7.84882813 -2.17140625 6.57265625 -2.1953125 5.2578125 C-2 2 -2 2 0 0 Z " fill="#CF9217" transform="translate(761,400)"/>
<path d="M0 0 C3.29293432 6.2878013 5.11455843 13.18340356 7 20 C6.34 20.66 5.68 21.32 5 22 C4.35242375 20.56328432 3.70700547 19.12559584 3.0625 17.6875 C2.52302734 16.48673828 2.52302734 16.48673828 1.97265625 15.26171875 C0.3863961 11.57318611 -0.11426481 8.7983904 -0.0625 4.8125 C-0.05347656 3.91144531 -0.04445313 3.01039063 -0.03515625 2.08203125 C-0.02355469 1.39496094 -0.01195312 0.70789063 0 0 Z " fill="#CB9627" transform="translate(606,436)"/>
<path d="M0 0 C1.21097999 3.63293998 0.67110261 4.53992407 -0.75 8 C-1.09546875 8.86625 -1.4409375 9.7325 -1.796875 10.625 C-2.95948674 12.92002578 -4.07731249 14.32041091 -6 16 C-6 15.01 -6 14.02 -6 13 C-6.66 12.67 -7.32 12.34 -8 12 C-6.68 9.69 -5.36 7.38 -4 5 C-3.34 5 -2.68 5 -2 5 C-1.34 3.35 -0.68 1.7 0 0 Z " fill="#CA951D" transform="translate(431,449)"/>
<path d="M0 0 C2.74277578 3.19990508 4.6302836 6.00499382 6 10 C5.34 10 4.68 10 4 10 C4.40992188 10.54269531 4.81984375 11.08539063 5.2421875 11.64453125 C5.78101563 12.35996094 6.31984375 13.07539063 6.875 13.8125 C7.40867187 14.52019531 7.94234375 15.22789062 8.4921875 15.95703125 C9.70814781 17.60456297 10.86416141 19.29624211 12 21 C7.2023385 19.22308833 4.21922507 15.4723175 2.015625 11.00390625 C0.51374286 7.25628525 -0.38359144 4.09164198 0 0 Z " fill="#CB9217" transform="translate(528,454)"/>
<path d="M0 0 C0.66 0.66 1.32 1.32 2 2 C3.32 1.34 4.64 0.68 6 0 C4.71480435 2.86697492 3.42870746 4.97607712 1 7 C0.34 7 -0.32 7 -1 7 C-1.33 8.65 -1.66 10.3 -2 12 C-2.33 12 -2.66 12 -3 12 C-3.2954439 6.97745369 -2.98514628 4.10457614 0 0 Z " fill="#CB981F" transform="translate(367,400)"/>
<path d="M0 0 C2.22942748 0.14179038 4.45853628 0.28859698 6.6875 0.4375 C7.92886719 0.51871094 9.17023438 0.59992188 10.44921875 0.68359375 C13.38180337 0.94491317 16.13441617 1.34798379 19 2 C19 2.33 19 2.66 19 3 C14.61047707 3.0895821 10.5253133 3.09472863 6.1875 2.3125 C2.99041028 1.68282106 2.99041028 1.68282106 0.5625 3.4375 C0.046875 3.953125 -0.46875 4.46875 -1 5 C-0.67 3.35 -0.34 1.7 0 0 Z " fill="#F5E3B8" transform="translate(406,439)"/>
<path d="M0 0 C0.66 0.33 1.32 0.66 2 1 C0.21427748 2.83947337 -1.57802449 4.67157741 -3.375 6.5 C-3.88289063 7.02464844 -4.39078125 7.54929687 -4.9140625 8.08984375 C-6.23832604 9.43153181 -7.61605865 10.71995815 -9 12 C-9.66 12 -10.32 12 -11 12 C-9.49650623 8.33213607 -7.36271208 6.31089607 -4.375 3.75 C-3.14910156 2.69039063 -3.14910156 2.69039063 -1.8984375 1.609375 C-1.27195312 1.07828125 -0.64546875 0.5471875 0 0 Z " fill="#FBEBC7" transform="translate(355,378)"/>
<path d="M0 0 C3 1 3 1 4.1875 3.0625 C4.455625 3.701875 4.72375 4.34125 5 5 C4.34 5 3.68 5 3 5 C3.99 6.98 4.98 8.96 6 11 C5.34 11 4.68 11 4 11 C1.63496961 8.00893216 0.08446819 5.97138418 -0.25 2.125 C-0.1675 1.42375 -0.085 0.7225 0 0 Z " fill="#C18812" transform="translate(612,456)"/>
<path d="M0 0 C0.33 0 0.66 0 1 0 C1.34833144 4.87664009 0.41685712 7.77050005 -2 12 C-2.99 12 -3.98 12 -5 12 C-3.41037341 7.96479403 -1.71767682 3.98188718 0 0 Z " fill="#C69737" transform="translate(703,449)"/>
<path d="M0 0 C0.33 0 0.66 0 1 0 C1 3.3 1 6.6 1 10 C1.66 10 2.32 10 3 10 C2.34 11.98 1.68 13.96 1 16 C0.67 16 0.34 16 0 16 C0 10.72 0 5.44 0 0 Z " fill="#EAAB2D" transform="translate(756,374)"/>
<path d="M0 0 C1.73662334 3.22515763 2.8905928 6.51329166 4 10 C3.34 10.66 2.68 11.32 2 12 C0.00214565 7.8794254 -0.17835515 4.54805635 0 0 Z " fill="#CB9C2C" transform="translate(334,443)"/>
<path d="M0 0 C0.33 0 0.66 0 1 0 C1 1.98 1 3.96 1 6 C-1.95664519 7.4783226 -4.74229737 7.06032783 -8 7 C-5 5 -5 5 -2 4 C-0.79117904 1.99983534 -0.79117904 1.99983534 0 0 Z " fill="#D99709" transform="translate(593,394)"/>
<path d="M0 0 C0.66 0.33 1.32 0.66 2 1 C-0.31 3.64 -2.62 6.28 -5 9 C-5.66 8.67 -6.32 8.34 -7 8 C-4.69 5.36 -2.38 2.72 0 0 Z " fill="#FCEAC1" transform="translate(469,326)"/>
<path d="M0 0 C0.66 0 1.32 0 2 0 C1.25 4.75 1.25 4.75 -1 7 C-1 6.34 -1 5.68 -1 5 C-1.66 4.67 -2.32 4.34 -3 4 C-1.625 2 -1.625 2 0 0 Z " fill="#C3932D" transform="translate(597,461)"/>
<path d="M0 0 C0.66 0.33 1.32 0.66 2 1 C-1.625 5.875 -1.625 5.875 -5 7 C-3.70700306 4.11562221 -2.34058637 2.12780579 0 0 Z " fill="#D19007" transform="translate(646,399)"/>
</svg>
